<mxfile host="app.diagrams.net" agent="Mozilla/5.0 (Windows NT 10.0; Win64; x64) AppleWebKit/537.36 (KHTML, like Gecko) Chrome/134.0.0.0 Safari/537.36 Edg/134.0.0.0" version="26.1.2">
  <diagram name="Page-1" id="74e2e168-ea6b-b213-b513-2b3c1d86103e">
    <mxGraphModel dx="1036" dy="1613" grid="1" gridSize="10" guides="1" tooltips="1" connect="1" arrows="1" fold="1" page="1" pageScale="1" pageWidth="1100" pageHeight="850" background="none" math="0" shadow="0">
      <root>
        <mxCell id="0" />
        <mxCell id="1" parent="0" />
        <mxCell id="WMDa5Z73t7WsmHkc4EHu-9" style="edgeStyle=orthogonalEdgeStyle;rounded=0;orthogonalLoop=1;jettySize=auto;html=1;entryX=0.5;entryY=0;entryDx=0;entryDy=0;" edge="1" parent="1" source="WMDa5Z73t7WsmHkc4EHu-1" target="WMDa5Z73t7WsmHkc4EHu-8">
          <mxGeometry relative="1" as="geometry">
            <Array as="points">
              <mxPoint x="470" y="325" />
              <mxPoint x="470" y="40" />
              <mxPoint x="685" y="40" />
            </Array>
          </mxGeometry>
        </mxCell>
        <mxCell id="WMDa5Z73t7WsmHkc4EHu-1" value="" style="rounded=1;whiteSpace=wrap;html=1;dashed=1;dashPattern=1 4;" vertex="1" parent="1">
          <mxGeometry x="90" y="90" width="330" height="470" as="geometry" />
        </mxCell>
        <mxCell id="WMDa5Z73t7WsmHkc4EHu-2" value="&lt;font style=&quot;font-size: 18px;&quot; face=&quot;Times New Roman&quot;&gt;Direct trust parameters&lt;/font&gt;" style="rounded=1;whiteSpace=wrap;html=1;" vertex="1" parent="1">
          <mxGeometry x="122.5" y="150" width="260" height="60" as="geometry" />
        </mxCell>
        <mxCell id="WMDa5Z73t7WsmHkc4EHu-3" value="&lt;font style=&quot;font-size: 18px;&quot; face=&quot;Times New Roman&quot;&gt;Indirect trust parameters&lt;/font&gt;" style="rounded=1;whiteSpace=wrap;html=1;" vertex="1" parent="1">
          <mxGeometry x="122.5" y="250" width="260" height="60" as="geometry" />
        </mxCell>
        <mxCell id="WMDa5Z73t7WsmHkc4EHu-4" value="&lt;font style=&quot;font-size: 18px;&quot; face=&quot;Times New Roman&quot;&gt;Context&lt;/font&gt;" style="rounded=1;whiteSpace=wrap;html=1;" vertex="1" parent="1">
          <mxGeometry x="125" y="450" width="260" height="60" as="geometry" />
        </mxCell>
        <mxCell id="WMDa5Z73t7WsmHkc4EHu-5" value="&lt;font style=&quot;font-size: 18px;&quot; face=&quot;Times New Roman&quot;&gt;Establishing trust model&lt;/font&gt;" style="rounded=1;whiteSpace=wrap;html=1;fillColor=#dae8fc;strokeColor=#6c8ebf;align=center;" vertex="1" parent="1">
          <mxGeometry x="122.5" y="590" width="265" height="40" as="geometry" />
        </mxCell>
        <mxCell id="WMDa5Z73t7WsmHkc4EHu-30" style="edgeStyle=orthogonalEdgeStyle;rounded=0;orthogonalLoop=1;jettySize=auto;html=1;entryX=0;entryY=0.5;entryDx=0;entryDy=0;" edge="1" parent="1" source="WMDa5Z73t7WsmHkc4EHu-8" target="WMDa5Z73t7WsmHkc4EHu-21">
          <mxGeometry relative="1" as="geometry" />
        </mxCell>
        <mxCell id="WMDa5Z73t7WsmHkc4EHu-32" style="edgeStyle=orthogonalEdgeStyle;rounded=0;orthogonalLoop=1;jettySize=auto;html=1;exitX=1;exitY=0.5;exitDx=0;exitDy=0;entryX=0;entryY=0.5;entryDx=0;entryDy=0;" edge="1" parent="1" source="WMDa5Z73t7WsmHkc4EHu-8" target="WMDa5Z73t7WsmHkc4EHu-22">
          <mxGeometry relative="1" as="geometry" />
        </mxCell>
        <mxCell id="WMDa5Z73t7WsmHkc4EHu-8" value="" style="rounded=1;whiteSpace=wrap;html=1;dashed=1;dashPattern=1 4;" vertex="1" parent="1">
          <mxGeometry x="520" y="90" width="330" height="470" as="geometry" />
        </mxCell>
        <mxCell id="WMDa5Z73t7WsmHkc4EHu-10" value="&lt;span style=&quot;color: rgb(17, 17, 17); font-size: 18px; text-align: start; white-space-collapse: preserve; background-color: rgb(247, 247, 247);&quot;&gt;&lt;font face=&quot;Times New Roman&quot;&gt;Comprehensive trust parameters&lt;/font&gt;&lt;/span&gt;" style="rounded=1;whiteSpace=wrap;html=1;" vertex="1" parent="1">
          <mxGeometry x="122.5" y="350" width="260" height="60" as="geometry" />
        </mxCell>
        <mxCell id="WMDa5Z73t7WsmHkc4EHu-18" value="" style="edgeStyle=orthogonalEdgeStyle;rounded=0;orthogonalLoop=1;jettySize=auto;html=1;" edge="1" parent="1" source="WMDa5Z73t7WsmHkc4EHu-11" target="WMDa5Z73t7WsmHkc4EHu-12">
          <mxGeometry relative="1" as="geometry" />
        </mxCell>
        <mxCell id="WMDa5Z73t7WsmHkc4EHu-11" value="&lt;font style=&quot;font-size: 18px;&quot; face=&quot;Times New Roman&quot;&gt;Feature extraction&lt;/font&gt;" style="rounded=1;whiteSpace=wrap;html=1;" vertex="1" parent="1">
          <mxGeometry x="555" y="150" width="260" height="60" as="geometry" />
        </mxCell>
        <mxCell id="WMDa5Z73t7WsmHkc4EHu-19" value="" style="edgeStyle=orthogonalEdgeStyle;rounded=0;orthogonalLoop=1;jettySize=auto;html=1;" edge="1" parent="1" source="WMDa5Z73t7WsmHkc4EHu-12" target="WMDa5Z73t7WsmHkc4EHu-13">
          <mxGeometry relative="1" as="geometry" />
        </mxCell>
        <mxCell id="WMDa5Z73t7WsmHkc4EHu-12" value="&lt;font style=&quot;font-size: 18px;&quot; face=&quot;Times New Roman&quot;&gt;Clustering labeling&lt;/font&gt;" style="rounded=1;whiteSpace=wrap;html=1;" vertex="1" parent="1">
          <mxGeometry x="555" y="250" width="260" height="60" as="geometry" />
        </mxCell>
        <mxCell id="WMDa5Z73t7WsmHkc4EHu-20" value="" style="edgeStyle=orthogonalEdgeStyle;rounded=0;orthogonalLoop=1;jettySize=auto;html=1;" edge="1" parent="1" source="WMDa5Z73t7WsmHkc4EHu-13" target="WMDa5Z73t7WsmHkc4EHu-14">
          <mxGeometry relative="1" as="geometry" />
        </mxCell>
        <mxCell id="WMDa5Z73t7WsmHkc4EHu-13" value="&lt;span style=&quot;color: rgb(17, 17, 17); font-size: 18px; text-align: start; white-space-collapse: preserve; background-color: rgb(247, 247, 247);&quot;&gt;&lt;font face=&quot;Times New Roman&quot;&gt;Experience playback and LSTM gating mechanisms&lt;/font&gt;&lt;/span&gt;" style="rounded=1;whiteSpace=wrap;html=1;" vertex="1" parent="1">
          <mxGeometry x="555" y="350" width="260" height="60" as="geometry" />
        </mxCell>
        <mxCell id="WMDa5Z73t7WsmHkc4EHu-14" value="&lt;font style=&quot;font-size: 18px;&quot; face=&quot;Times New Roman&quot;&gt;Optimal trust boundary&lt;/font&gt;" style="rounded=1;whiteSpace=wrap;html=1;" vertex="1" parent="1">
          <mxGeometry x="555" y="450" width="260" height="60" as="geometry" />
        </mxCell>
        <mxCell id="WMDa5Z73t7WsmHkc4EHu-15" value="&lt;font style=&quot;font-size: 18px;&quot; face=&quot;Times New Roman&quot;&gt;Training trust model&lt;/font&gt;" style="rounded=1;whiteSpace=wrap;html=1;fillColor=#dae8fc;strokeColor=#6c8ebf;align=center;" vertex="1" parent="1">
          <mxGeometry x="555" y="590" width="265" height="40" as="geometry" />
        </mxCell>
        <mxCell id="WMDa5Z73t7WsmHkc4EHu-21" value="" style="rounded=1;whiteSpace=wrap;html=1;dashed=1;dashPattern=1 4;" vertex="1" parent="1">
          <mxGeometry x="950" y="90" width="330" height="160" as="geometry" />
        </mxCell>
        <mxCell id="WMDa5Z73t7WsmHkc4EHu-22" value="" style="rounded=1;whiteSpace=wrap;html=1;dashed=1;dashPattern=1 4;" vertex="1" parent="1">
          <mxGeometry x="950" y="330" width="330" height="230" as="geometry" />
        </mxCell>
        <mxCell id="WMDa5Z73t7WsmHkc4EHu-23" value="&lt;span style=&quot;color: rgb(6, 6, 7); letter-spacing: 0.25px; text-align: left; white-space-collapse: preserve; background-color: rgb(255, 255, 255);&quot;&gt;&lt;font style=&quot;font-size: 18px;&quot; face=&quot;Times New Roman&quot;&gt;Trustworthy&lt;/font&gt;&lt;/span&gt;" style="rounded=1;whiteSpace=wrap;html=1;" vertex="1" parent="1">
          <mxGeometry x="992.5" y="110" width="245" height="50" as="geometry" />
        </mxCell>
        <mxCell id="WMDa5Z73t7WsmHkc4EHu-24" value="&lt;span style=&quot;color: rgb(6, 6, 7); letter-spacing: 0.25px; text-align: left; white-space-collapse: preserve; background-color: rgb(255, 255, 255);&quot;&gt;&lt;font style=&quot;font-size: 18px;&quot; face=&quot;Times New Roman&quot;&gt;Untrustworthy&lt;/font&gt;&lt;/span&gt;" style="rounded=1;whiteSpace=wrap;html=1;" vertex="1" parent="1">
          <mxGeometry x="992.5" y="180" width="247.5" height="50" as="geometry" />
        </mxCell>
        <mxCell id="WMDa5Z73t7WsmHkc4EHu-25" value="&lt;font style=&quot;font-size: 18px;&quot; face=&quot;Times New Roman&quot;&gt;Making trust decision&lt;/font&gt;" style="rounded=1;whiteSpace=wrap;html=1;fillColor=#dae8fc;strokeColor=#6c8ebf;align=center;" vertex="1" parent="1">
          <mxGeometry x="982.5" y="270" width="265" height="40" as="geometry" />
        </mxCell>
        <mxCell id="WMDa5Z73t7WsmHkc4EHu-26" value="&lt;font style=&quot;font-size: 18px;&quot; face=&quot;Times New Roman&quot;&gt;Training trust model&lt;/font&gt;" style="rounded=1;whiteSpace=wrap;html=1;fillColor=#dae8fc;strokeColor=#6c8ebf;align=center;" vertex="1" parent="1">
          <mxGeometry x="983.75" y="590" width="265" height="40" as="geometry" />
        </mxCell>
        <mxCell id="WMDa5Z73t7WsmHkc4EHu-27" value="&lt;font face=&quot;Times New Roman&quot;&gt;&lt;span style=&quot;font-size: 18px;&quot;&gt;Accuracy&lt;/span&gt;&lt;/font&gt;" style="rounded=1;whiteSpace=wrap;html=1;" vertex="1" parent="1">
          <mxGeometry x="992.5" y="355" width="245" height="50" as="geometry" />
        </mxCell>
        <mxCell id="WMDa5Z73t7WsmHkc4EHu-28" value="&lt;span style=&quot;font-family: &amp;quot;Times New Roman&amp;quot;; font-size: 18px;&quot;&gt;Precision&lt;/span&gt;" style="rounded=1;whiteSpace=wrap;html=1;" vertex="1" parent="1">
          <mxGeometry x="992.5" y="424" width="245" height="50" as="geometry" />
        </mxCell>
        <mxCell id="WMDa5Z73t7WsmHkc4EHu-29" value="&lt;span style=&quot;font-family: &amp;quot;Times New Roman&amp;quot;; font-size: 18px;&quot;&gt;Recall&lt;/span&gt;" style="rounded=1;whiteSpace=wrap;html=1;" vertex="1" parent="1">
          <mxGeometry x="992.5" y="490" width="245" height="50" as="geometry" />
        </mxCell>
      </root>
    </mxGraphModel>
  </diagram>
</mxfile>
